<svg width="30" height="30" viewBox="0 0 30 30" fill="none" xmlns="http://www.w3.org/2000/svg">
<path d="M15 0C6.72909 0 0 6.72909 0 15C0 23.2709 6.72909 30 15 30C23.2709 30 30 23.2709 30 15C30 6.72909 23.2709 0 15 0ZM23.6538 13.1358C23.6538 13.3007 23.5884 13.4588 23.4718 13.5754C23.3552 13.692 23.1971 13.7575 23.0322 13.7575H18.7385C18.6155 13.7576 18.4952 13.7213 18.3929 13.6531C18.2906 13.5848 18.2108 13.4877 18.1638 13.3741C18.1167 13.2604 18.1045 13.1354 18.1286 13.0148C18.1527 12.8942 18.2121 12.7834 18.2993 12.6966L19.8981 11.0978L19.4942 10.6284C18.7719 9.87845 17.8749 9.31922 16.8836 9.00068C15.8923 8.68213 14.8375 8.61421 13.8135 8.80297C12.7895 8.99173 11.8282 9.4313 11.0157 10.0824C10.2031 10.7334 9.56448 11.5757 9.15699 12.5339C8.7495 13.4921 8.5858 14.5364 8.68053 15.5733C8.77526 16.6102 9.12546 17.6075 9.69983 18.476C10.2742 19.3445 11.0548 20.0571 11.9719 20.5502C12.8891 21.0432 13.914 21.3014 14.9553 21.3014C16.2584 21.3002 17.5292 20.8958 18.5934 20.1437C19.6575 19.3916 20.4629 18.3287 20.899 17.1007C20.9496 16.9577 21.0278 16.8261 21.1292 16.7133C21.2306 16.6005 21.3532 16.5088 21.49 16.4434C21.6269 16.378 21.7753 16.3402 21.9267 16.3322C22.0782 16.3241 22.2297 16.346 22.3727 16.3965C22.5157 16.447 22.6474 16.5252 22.7602 16.6266C22.8729 16.728 22.9646 16.8507 23.03 16.9875C23.0954 17.1243 23.1332 17.2727 23.1413 17.4242C23.1493 17.5756 23.1274 17.7272 23.0769 17.8702C22.551 19.3585 21.6261 20.6737 20.4032 21.6719C19.1804 22.6701 17.7066 23.3129 16.1431 23.5301C14.5796 23.7473 12.9865 23.5306 11.5378 22.9035C10.0892 22.2764 8.84079 21.2632 7.92908 19.9746C7.01738 18.686 6.47745 17.1715 6.36831 15.5968C6.25917 14.022 6.58502 12.4476 7.31025 11.0455C8.03547 9.64341 9.13216 8.46767 10.4805 7.64678C11.8287 6.82588 13.3768 6.39141 14.9553 6.39086C16.1203 6.38641 17.2739 6.62054 18.3449 7.07881C19.416 7.53709 20.3819 8.2098 21.1832 9.05553L21.2236 9.10024L21.5344 9.46082L22.593 8.40216C22.6494 8.34448 22.7167 8.29859 22.791 8.26714C22.8653 8.23569 22.9451 8.21933 23.0257 8.21899C23.1078 8.21832 23.1892 8.23394 23.2652 8.26493C23.3412 8.29593 23.4103 8.34169 23.4686 8.39956C23.5268 8.45744 23.5729 8.52629 23.6044 8.60212C23.6358 8.67795 23.6519 8.75926 23.6517 8.84135L23.6538 13.1358Z" fill="#161616"/>
</svg>
