<svg width="883" height="438" viewBox="0 0 883 438" fill="none" xmlns="http://www.w3.org/2000/svg">
<mask id="path-1-inside-1_47_13" fill="white">
<path d="M52.5378 58.7528L67.5568 33.2905V58.7528H86.8076V0.906428H63.7398L44.8208 32.9609L25.9849 0.906428H3V58.7528H22.3338V33.4553L36.606 58.7528H52.5378Z"/>
<path d="M145.968 1.07123H115.93L89.7922 58.7528H112.113L116.511 49.1117H145.304L149.619 58.7528H172.023L145.968 1.07123ZM123.398 32.3841L130.866 17.3045L138.334 32.3841H123.398Z"/>
<path d="M249.055 58.7528V0.906428H229.721V35.1858L201.675 0.906428H174.79V58.7528H194.124V23.8967L222.668 58.7528H249.055Z"/>
<path d="M295.494 58.7528C310.513 58.7528 328.436 52.243 328.436 29.912C328.436 5.27374 312.256 1.07123 295.328 1.07123H255.499V58.7528H295.494ZM294.167 43.0964H274.833V16.9749H294.167C304.539 16.9749 308.19 22.8254 308.19 29.9944C308.19 37.2458 303.626 43.0964 294.167 43.0964Z"/>
<path d="M379.343 1.07123H349.305L323.167 58.7528H345.488L349.886 49.1117H378.68L382.994 58.7528H405.398L379.343 1.07123ZM356.773 32.3841L364.241 17.3045L371.709 32.3841H356.773Z"/>
<path d="M459.567 58.7528L474.586 33.2905V58.7528H493.837V0.906428H470.769L451.85 32.9609L433.014 0.906428H410.029V58.7528H429.363V33.4553L443.635 58.7528H459.567Z"/>
<path d="M499.1 0.988829V58.7528H563.408V42.7668H518.434V37.493H560.503V22.0838H518.434V16.9749H563.408V0.988829H499.1Z"/>
<path d="M641.984 58.7528V0.906428H622.651V35.1858L594.604 0.906428H567.719V58.7528H587.053V23.8967L615.597 58.7528H641.984Z"/>
<path d="M646.564 0.906428V20.1061H675.358V58.7528H694.692V20.1061H723.485V0.906428H646.564Z"/>
<path d="M764.888 0C738.75 0 726.22 9.14665 726.22 28.4288C726.22 49.1941 737.671 59 765.385 59C792.436 59 805.298 51.9958 805.298 29.5C805.298 6.50978 790.113 0 764.888 0ZM765.634 43.838C753.188 43.838 747.462 37.905 747.462 29.5C747.462 20.5182 753.188 15.162 765.385 15.162C776.255 15.162 784.055 19.9413 784.055 29.5C784.055 39.4707 776.919 43.838 765.634 43.838Z"/>
<path d="M843.42 1.07123C817.78 1.07123 807.739 2.80168 807.739 19.9413C807.739 34.8561 819.771 36.0098 843.42 37.905C858.688 39.1411 860.43 38.8115 860.43 40.6243C860.43 43.2612 858.854 43.1788 844.83 43.1788C829.977 43.1788 828.567 42.3548 828.567 38.8939C826.077 38.8939 808.569 38.8939 808.569 38.8939C808.569 55.7863 813.299 58.7528 844 58.7528C877.358 58.7528 883 55.7039 883 40.8715C883 25.9567 876.03 25.5447 843.752 22.9078C829.147 21.7542 828.069 21.6718 827.903 20.1061C827.903 17.9637 829.147 17.3045 843.917 17.3045C859.185 17.3045 860.347 19.0349 860.347 22.0014C863.666 22.0014 880.926 22.0014 880.926 22.0014C880.926 5.27374 873.873 1.07123 843.42 1.07123Z"/>
</mask>
<path d="M52.5378 58.7528L67.5568 33.2905V58.7528H86.8076V0.906428H63.7398L44.8208 32.9609L25.9849 0.906428H3V58.7528H22.3338V33.4553L36.606 58.7528H52.5378Z" stroke="black" stroke-width="6" mask="url(#path-1-inside-1_47_13)"/>
<path d="M145.968 1.07123H115.93L89.7922 58.7528H112.113L116.511 49.1117H145.304L149.619 58.7528H172.023L145.968 1.07123ZM123.398 32.3841L130.866 17.3045L138.334 32.3841H123.398Z" stroke="black" stroke-width="6" mask="url(#path-1-inside-1_47_13)"/>
<path d="M249.055 58.7528V0.906428H229.721V35.1858L201.675 0.906428H174.79V58.7528H194.124V23.8967L222.668 58.7528H249.055Z" stroke="black" stroke-width="6" mask="url(#path-1-inside-1_47_13)"/>
<path d="M295.494 58.7528C310.513 58.7528 328.436 52.243 328.436 29.912C328.436 5.27374 312.256 1.07123 295.328 1.07123H255.499V58.7528H295.494ZM294.167 43.0964H274.833V16.9749H294.167C304.539 16.9749 308.19 22.8254 308.19 29.9944C308.19 37.2458 303.626 43.0964 294.167 43.0964Z" stroke="black" stroke-width="6" mask="url(#path-1-inside-1_47_13)"/>
<path d="M379.343 1.07123H349.305L323.167 58.7528H345.488L349.886 49.1117H378.68L382.994 58.7528H405.398L379.343 1.07123ZM356.773 32.3841L364.241 17.3045L371.709 32.3841H356.773Z" stroke="black" stroke-width="6" mask="url(#path-1-inside-1_47_13)"/>
<path d="M459.567 58.7528L474.586 33.2905V58.7528H493.837V0.906428H470.769L451.85 32.9609L433.014 0.906428H410.029V58.7528H429.363V33.4553L443.635 58.7528H459.567Z" stroke="black" stroke-width="6" mask="url(#path-1-inside-1_47_13)"/>
<path d="M499.1 0.988829V58.7528H563.408V42.7668H518.434V37.493H560.503V22.0838H518.434V16.9749H563.408V0.988829H499.1Z" stroke="black" stroke-width="6" mask="url(#path-1-inside-1_47_13)"/>
<path d="M641.984 58.7528V0.906428H622.651V35.1858L594.604 0.906428H567.719V58.7528H587.053V23.8967L615.597 58.7528H641.984Z" stroke="black" stroke-width="6" mask="url(#path-1-inside-1_47_13)"/>
<path d="M646.564 0.906428V20.1061H675.358V58.7528H694.692V20.1061H723.485V0.906428H646.564Z" stroke="black" stroke-width="6" mask="url(#path-1-inside-1_47_13)"/>
<path d="M764.888 0C738.75 0 726.22 9.14665 726.22 28.4288C726.22 49.1941 737.671 59 765.385 59C792.436 59 805.298 51.9958 805.298 29.5C805.298 6.50978 790.113 0 764.888 0ZM765.634 43.838C753.188 43.838 747.462 37.905 747.462 29.5C747.462 20.5182 753.188 15.162 765.385 15.162C776.255 15.162 784.055 19.9413 784.055 29.5C784.055 39.4707 776.919 43.838 765.634 43.838Z" stroke="black" stroke-width="6" mask="url(#path-1-inside-1_47_13)"/>
<path d="M843.42 1.07123C817.78 1.07123 807.739 2.80168 807.739 19.9413C807.739 34.8561 819.771 36.0098 843.42 37.905C858.688 39.1411 860.43 38.8115 860.43 40.6243C860.43 43.2612 858.854 43.1788 844.83 43.1788C829.977 43.1788 828.567 42.3548 828.567 38.8939C826.077 38.8939 808.569 38.8939 808.569 38.8939C808.569 55.7863 813.299 58.7528 844 58.7528C877.358 58.7528 883 55.7039 883 40.8715C883 25.9567 876.03 25.5447 843.752 22.9078C829.147 21.7542 828.069 21.6718 827.903 20.1061C827.903 17.9637 829.147 17.3045 843.917 17.3045C859.185 17.3045 860.347 19.0349 860.347 22.0014C863.666 22.0014 880.926 22.0014 880.926 22.0014C880.926 5.27374 873.873 1.07123 843.42 1.07123Z" stroke="black" stroke-width="6" mask="url(#path-1-inside-1_47_13)"/>
<path d="M38.4637 374.831L46.4153 309.815L54.5518 374.831H38.4637ZM61.9487 433.752H93.0155L61.9487 186.063H31.0668L0 433.752H31.0668L34.5803 405.677H58.4352L61.9487 433.752Z" fill="black"/>
<path d="M154.594 399.951C154.594 402.783 153.608 405.184 151.636 407.154C149.54 409.125 147.074 410.11 144.239 410.11C141.403 410.11 138.999 409.125 137.027 407.154C134.931 405.184 133.883 402.783 133.883 399.951V220.049C133.883 217.217 134.931 214.816 137.027 212.846C138.999 210.752 141.403 209.706 144.239 209.706C147.074 209.706 149.54 210.752 151.636 212.846C153.608 214.816 154.594 217.217 154.594 220.049V279.893H186.216V223.743C186.216 212.291 182.086 202.441 173.826 194.19C165.69 186.063 155.827 182 144.239 182C132.774 182 122.911 186.063 114.651 194.19C106.515 202.441 102.446 212.291 102.446 223.743V396.257C102.446 407.709 106.515 417.559 114.651 425.81C122.911 433.937 132.774 438 144.239 438C155.827 438 165.69 433.937 173.826 425.81C182.086 417.559 186.216 407.709 186.216 396.257V339.737H154.594V399.951Z" fill="black"/>
<path d="M234.111 374.831L242.062 309.815L250.199 374.831H234.111ZM257.596 433.752H288.662L257.596 186.063H226.714L195.647 433.752H226.714L230.227 405.677H254.082L257.596 433.752Z" fill="black"/>
<path d="M298.093 433.752H346.173C357.638 433.752 366.514 430.612 372.802 424.332C379.212 417.929 382.418 409.001 382.418 397.55V222.266C382.418 210.814 379.212 201.948 372.802 195.668C366.514 189.265 357.638 186.063 346.173 186.063H298.093V433.752ZM329.16 218.202H340.44C343.276 218.202 345.741 219.249 347.837 221.342C349.81 223.312 350.796 225.713 350.796 228.545V391.27C350.796 394.102 349.81 396.503 347.837 398.473C345.741 400.567 343.276 401.613 340.44 401.613H329.16V218.202Z" fill="black"/>
<path d="M453.612 217.094V186.063H391.664V433.752H453.612V402.721H422.73V325.515H453.612V294.485H422.73V217.094H453.612Z" fill="black"/>
<path d="M548.477 186.063L521.294 316.28L494.11 186.063H463.043V433.752H494.11V327.547L509.089 433.752H533.313L548.847 325.146V433.752H579.914V186.063H548.477Z" fill="black"/>
<path d="M620.227 433.752H589.16V186.063H620.227V433.752Z" fill="black"/>
<path d="M683.655 299.472C688.093 303.412 692.531 307.907 696.969 312.955C701.53 318.004 705.29 324.038 708.249 331.056C711.331 338.075 712.872 346.571 712.872 356.545V396.257C712.872 407.709 708.927 417.498 701.037 425.625C692.777 433.875 682.915 438 671.45 438C659.861 438 649.999 433.875 641.862 425.625C633.603 417.498 629.473 407.709 629.473 396.257V345.833H661.094V399.766C661.094 402.721 662.081 405.184 664.053 407.154C666.149 409.125 668.614 410.11 671.45 410.11C674.285 410.11 676.689 409.125 678.662 407.154C680.634 405.184 681.62 402.721 681.62 399.766V359.316C681.62 352.297 679.895 345.709 676.443 339.553C673.114 333.396 668.491 327.608 662.574 322.19C658.135 318.25 653.328 313.263 648.15 307.229C643.095 301.073 638.719 293.561 635.02 284.696C631.322 275.707 629.473 265.055 629.473 252.742V224.113C629.473 212.661 633.479 202.872 641.493 194.745C649.752 186.494 659.615 182.369 671.08 182.369C682.545 182.369 692.408 186.494 700.667 194.745C708.804 202.872 712.872 212.661 712.872 224.113V267.518H681.436V220.603C681.436 217.648 680.449 215.185 678.477 213.215C676.258 211.245 673.792 210.26 671.08 210.26C668.121 210.26 665.717 211.245 663.868 213.215C661.896 215.185 660.909 217.648 660.909 220.603V252.742C660.909 260.499 662.019 267.21 664.238 272.874C666.457 278.539 669.292 283.526 672.744 287.835C676.196 292.145 679.833 296.024 683.655 299.472Z" fill="black"/>
<path d="M794.608 186.063H722.303V217.094H743.014V433.752H773.896V217.094H794.608V186.063Z" fill="black"/>
<path d="M828.448 374.831L836.4 309.815L844.536 374.831H828.448ZM851.933 433.752H883L851.933 186.063H821.051L789.984 433.752H821.051L824.565 405.677H848.42L851.933 433.752Z" fill="black"/>
<path d="M56.9889 161.652C78.0137 161.652 103.104 152.494 103.104 121.08C103.104 86.419 80.4531 80.507 56.7566 80.507H1V161.652H56.9889ZM55.1303 139.627H28.0652V102.88H55.1303C69.6503 102.88 74.7613 111.11 74.7613 121.196C74.7613 131.397 68.3725 139.627 55.1303 139.627Z" fill="black"/>
<path d="M107.766 80.3911V161.652H197.79V139.163H134.831V131.744H193.724V110.067H134.831V102.88H197.79V80.3911H107.766Z" fill="black"/>
<path d="M313.172 161.652C335.126 161.652 353.131 158.406 359.752 145.655C364.515 136.613 365.444 125.021 365.444 99.8659V80.2751H336.869C336.869 80.2751 336.869 106.821 336.869 116.675C336.869 126.644 335.243 139.395 313.172 139.395C291.102 139.395 288.779 126.644 288.779 116.675C288.779 106.821 288.779 80.2751 288.779 80.2751H260.204V99.8659C260.204 125.021 261.133 136.613 265.895 145.655C272.516 158.406 291.218 161.652 313.172 161.652Z" fill="black"/>
<path d="M442.421 161.652L463.445 125.832V161.652H490.394V80.2751H458.102L431.618 125.369L405.25 80.2751H373.073V161.652H400.139V126.064L420.118 161.652H442.421Z" fill="black"/>
<path d="M647.331 138.932C647.331 123.862 639.896 118.413 633.972 116.559C637.341 113.777 639.664 108.908 639.664 100.677C639.664 87.5782 632.23 80.2751 609.927 80.2751L551.964 80.3911V161.652H574.847C574.847 161.652 607.952 161.652 619.336 161.652C641.755 161.652 647.331 153.422 647.331 138.932ZM579.145 102.88H609.579C611.786 102.88 613.528 104.619 613.528 106.821C613.528 108.908 611.786 110.763 609.579 110.763H579.145V102.88ZM618.871 139.279H579.145V131.281H618.871C621.078 131.281 622.821 133.02 622.821 135.222C622.821 137.425 621.078 139.279 618.871 139.279Z" fill="black"/>
<path d="M703.99 79C667.4 79 649.86 91.8673 649.86 118.993C649.86 148.205 665.89 162 704.687 162C742.555 162 760.56 152.147 760.56 120.5C760.56 88.1578 739.303 79 703.99 79ZM705.035 140.67C687.612 140.67 679.597 132.324 679.597 120.5C679.597 107.865 687.612 100.33 704.687 100.33C719.904 100.33 730.823 107.053 730.823 120.5C730.823 134.527 720.833 140.67 705.035 140.67Z" fill="black"/>
<path d="M835.026 161.652L856.051 125.832V161.652H883V80.2751H850.708L824.223 125.369L797.855 80.2751H765.679V161.652H792.744V126.064L812.724 161.652H835.026Z" fill="black"/>
</svg>
